<svg class="_seabankLogo_16i3o_694 row-start" fill="none" height="81" viewBox="0 0 252 81" width="252" xmlns="http://www.w3.org/2000/svg"><path clip-rule="evenodd" d="M37.0436 0C16.6373 0 0.0927734 16.5445 0.0927734 36.9101C0.0927734 44.9995 2.69437 52.4791 7.12521 58.5766C8.66991 57.8449 10.2959 57.1945 12.0439 56.666C7.73496 51.2596 5.17402 44.3897 5.17402 36.9508C5.17402 19.4307 19.4421 5.16254 36.9623 5.16254C54.4824 5.16254 68.7505 19.4307 68.7505 36.9508C68.7505 48.1702 62.8969 58.0888 54.0352 63.7391C54.8889 63.7391 55.7425 63.7391 56.6368 63.6985C59.523 63.5359 62.2465 62.2351 64.5636 61.1782C70.4172 54.6335 73.9944 46.4222 73.9944 36.9101C73.9944 16.5445 57.4498 0 37.0436 0Z" fill="#EA5F00" fill-rule="evenodd"></path><path clip-rule="evenodd" d="M60.4574 73.66C58.3843 74.351 56.3518 74.7575 54.4006 74.7982C46.1487 75.1234 40.2138 72.6437 34.5228 70.2048C29.4415 68.0503 24.6855 66.0178 18.8319 66.343C13.3035 66.7902 9.44177 69.8796 9.27918 70.0015C8.14098 70.8958 7.97838 72.5625 8.87268 73.7006C9.76697 74.8388 11.4743 75.0421 12.6125 74.1478C12.6531 74.1478 15.4173 71.9527 19.2384 71.6682C23.7099 71.4649 27.8155 73.1315 32.4903 75.164C37.8154 77.4404 43.7503 79.9607 51.6771 80.2046C52.6527 80.2453 53.6283 80.2046 54.6445 80.164C57.1241 80.0827 59.6851 79.5949 62.246 78.7412C63.6281 78.2534 64.3598 76.7494 63.9127 75.3673C63.3842 73.9039 61.8395 73.1722 60.4574 73.66Z" fill="#2673DD" fill-rule="evenodd"></path><path clip-rule="evenodd" d="M68.9533 61.7451C66.433 63.493 61.3518 66.4604 55.5389 66.6637C48.1406 66.9889 43.3032 64.8345 38.1407 62.6394C32.7342 60.2817 27.1245 57.8427 18.71 58.2085C10.9052 58.4931 4.27927 62.9646 1.02727 65.5661C-0.151574 66.5011 -0.354823 68.249 0.620775 69.4279C1.55572 70.6067 3.30367 70.81 4.48252 69.8344C7.20607 67.6393 12.6938 63.8995 18.9132 63.6556C26.1083 63.3711 30.8643 65.4442 35.9049 67.6393C40.8642 69.7937 45.9455 72.0295 53.2625 72.1514C54.0755 72.1514 54.8885 72.1514 55.7421 72.1108C62.9371 71.8262 69.0346 68.2897 72.0834 66.2165C73.3435 65.3629 73.6281 63.6556 72.7744 62.3955C71.9208 61.176 70.1728 60.8508 68.9533 61.7451Z" fill="#2673DD" fill-rule="evenodd"></path><path clip-rule="evenodd" d="M39.116 59.9188L39.1973 59.9594C42.4086 61.2602 45.498 62.5204 49.1159 63.2114C59.1564 58.618 66.1482 48.4961 66.1482 36.7483C66.1889 20.7322 53.0996 7.68359 37.0835 7.68359C21.0674 7.68359 7.9375 20.7322 7.9375 36.7483C7.9375 44.0653 10.661 50.7725 15.1325 55.8538C16.0268 55.6912 16.9211 55.6099 17.8561 55.5286C27.1243 55.0001 33.5063 57.6017 39.116 59.9188ZM41.1892 40.3255C40.7014 39.8377 40.0916 39.3905 39.3599 39.0653C38.6282 38.6995 37.8152 38.4149 36.9616 38.1304C36.0673 37.8458 35.2543 37.5206 34.5226 37.1954C32.8153 36.545 31.3925 35.5695 30.2137 34.1874C29.0348 32.8459 28.5064 31.1386 28.5064 29.0655C28.547 27.724 28.8316 26.5452 29.3194 25.5289C29.8478 24.5127 30.5389 23.659 31.4332 23.0086C32.3275 22.3582 33.3031 21.8298 34.4006 21.5046C35.4982 21.1794 36.677 21.0168 37.8965 21.0168H37.9778C39.8477 21.0574 41.5144 21.4233 42.8964 22.0737C44.2785 22.7647 45.5793 23.5777 46.7988 24.5127L43.9127 28.659C43.0997 28.0492 42.2054 27.5614 41.3111 27.1549C40.3762 26.7484 39.238 26.5045 37.8965 26.4232C36.8803 26.3419 35.9453 26.5452 35.173 27.033C34.36 27.4801 33.9535 28.1712 33.9535 29.0655C33.9535 29.5939 34.0754 30.0817 34.36 30.4882C34.6445 30.8947 35.051 31.2606 35.5388 31.5451C36.0266 31.8703 36.5551 32.0736 37.0835 32.3175C37.612 32.5207 38.1811 32.724 38.6689 32.9272C39.7258 33.2931 40.7826 33.7402 41.8396 34.2687C42.8964 34.7971 43.8314 35.4475 44.685 36.1792C45.5387 36.9109 46.1891 37.8052 46.7175 38.8214C47.2053 39.8377 47.4492 41.0165 47.4086 42.3986C47.3679 43.7401 47.0834 44.9596 46.5956 45.9758C46.0671 47.0327 45.3354 47.8864 44.4411 48.6181C43.5062 49.3498 42.4493 49.8782 41.2298 50.2441C40.0103 50.6099 38.6689 50.7725 37.2461 50.7319C35.9047 50.6912 34.6852 50.5286 33.5876 50.1628C32.4901 49.7969 31.4738 49.3904 30.5795 48.9026C29.6852 48.4148 28.9535 47.927 28.3031 47.3986C27.6527 46.9514 27.2056 46.5449 26.921 46.2197L29.8885 42.0328C30.8641 42.9677 32.0023 43.7401 33.3437 44.3498C34.6852 45.0002 36.0673 45.3254 37.49 45.3254C38.7095 45.3661 39.7258 45.0815 40.6201 44.5531C41.5144 44.0246 41.9208 43.2116 41.9615 42.1954C41.9615 41.423 41.7176 40.8133 41.1892 40.3255Z" fill="#EA5F00" fill-rule="evenodd"></path><path clip-rule="evenodd" d="M102.367 36.6232C101.513 35.8509 100.578 35.2411 99.5214 34.672C98.4645 34.1436 97.4076 33.6558 96.3101 33.2899C95.7816 33.0867 95.2532 32.8834 94.6841 32.6802C94.115 32.4769 93.5865 32.233 93.0987 31.9078C92.6109 31.6233 92.2451 31.2574 91.9199 30.8509C91.6354 30.4444 91.4728 29.9566 91.4728 29.4282C91.5134 28.5339 91.9199 27.8429 92.6923 27.3957C93.5052 26.9486 94.3995 26.7453 95.4564 26.8266C96.7979 26.9079 97.9767 27.1518 98.9117 27.5583C99.8466 28.0055 100.741 28.4932 101.554 29.103L104.481 24.9567C103.261 23.9811 101.92 23.1681 100.538 22.4771C99.1556 21.786 97.4889 21.4608 95.619 21.4202H95.5377C94.3182 21.3795 93.1394 21.5421 92.0012 21.908C90.863 22.2738 89.8874 22.7616 88.9931 23.412C88.0988 24.0624 87.4078 24.9161 86.8793 25.9323C86.3509 26.9486 86.0663 28.168 86.0257 29.5095C85.985 31.5826 86.5541 33.2899 87.733 34.6314C88.9118 35.9728 90.3346 36.9891 92.0418 37.6395C92.8142 37.9647 93.6272 38.2899 94.5215 38.5338C95.3751 38.8183 96.1881 39.1435 96.9198 39.5094C97.6515 39.8752 98.2613 40.2817 98.7491 40.8102C99.2369 41.3386 99.5214 41.9484 99.4808 42.7207C99.4401 43.737 98.993 44.55 98.1393 45.0784C97.2857 45.6069 96.2288 45.8914 95.0093 45.8508C93.5865 45.8101 92.1638 45.4849 90.8224 44.8752C89.4809 44.2248 88.3021 43.4524 87.3265 42.5581L84.3184 46.7451C84.6029 47.0296 85.0907 47.4768 85.7005 48.0052C86.3509 48.5337 87.0826 49.0215 87.9769 49.5093C88.8712 49.9971 89.8874 50.4036 90.985 50.7694C92.1232 51.1353 93.3426 51.2979 94.6841 51.3385C96.1068 51.3792 97.4483 51.2166 98.6678 50.8507C99.8873 50.4849 100.985 49.9564 101.92 49.2247C102.855 48.493 103.586 47.5987 104.115 46.5418C104.643 45.4849 104.928 44.2654 104.969 42.924C105.009 41.5419 104.765 40.3224 104.237 39.3061C103.871 38.2492 103.221 37.3549 102.367 36.6232Z" fill="#EA5F00" fill-rule="evenodd"></path><path clip-rule="evenodd" d="M176.065 35.5289C176.309 35.285 176.594 34.9598 176.838 34.6752C177.122 34.35 177.366 33.9842 177.569 33.4964C177.813 33.0086 177.976 32.4801 178.139 31.8297C178.261 31.1793 178.342 30.407 178.342 29.472C178.342 28.5777 178.179 27.6834 177.854 26.8298C177.529 25.9761 177.082 25.2038 176.472 24.5127C175.862 23.8217 175.171 23.2119 174.317 22.7241C173.464 22.2363 172.529 21.9111 171.431 21.7892C170.74 21.7079 169.968 21.6266 169.155 21.6266C168.301 21.5859 167.448 21.5859 166.472 21.5859L158.586 21.6266V51.3823H166.553C167.529 51.3823 168.464 51.3823 169.48 51.3823C170.496 51.3823 171.269 51.3823 171.919 51.3417C173.017 51.2197 174.033 50.9758 175.009 50.5693C175.943 50.1628 176.838 49.5937 177.529 48.862C178.261 48.1303 178.83 47.2361 179.277 46.2605C179.683 45.2442 179.927 44.106 179.927 42.8459C179.927 40.854 179.521 39.2687 178.748 38.0898C177.976 36.8703 177.082 36.0167 176.065 35.5289ZM163.545 26.7078H166.106C166.96 26.7078 167.732 26.7078 168.383 26.7485C169.033 26.7891 169.643 26.8298 170.09 26.8704C171.106 26.9924 171.919 27.3176 172.529 27.846C173.179 28.3338 173.504 29.0655 173.464 29.9598C173.504 31.098 173.139 31.9517 172.529 32.4395C171.878 32.9273 171.065 33.2525 170.049 33.3744C169.561 33.4557 168.992 33.4964 168.342 33.4964C167.692 33.4964 166.919 33.4964 166.066 33.4964H163.505V26.7078H163.545ZM173.789 44.8377C173.057 45.5288 171.878 45.9353 170.252 46.0166C169.765 46.0572 169.155 46.0979 168.342 46.0572C167.57 46.0572 166.757 46.0572 165.984 46.0572H163.505V38.3744H165.984C166.757 38.3744 167.488 38.3744 168.179 38.3337C168.87 38.2931 169.48 38.2931 169.968 38.3337C171.553 38.415 172.732 38.7809 173.586 39.4313C174.439 40.0817 174.887 40.976 174.887 42.1548C174.927 43.2524 174.561 44.1467 173.789 44.8377Z" fill="#EA5F00" fill-rule="evenodd"></path><path clip-rule="evenodd" d="M129.4 35.3662C128.831 33.8215 128.018 32.48 126.961 31.4231C125.945 30.3256 124.725 29.5126 123.343 28.9435C121.961 28.3744 120.538 28.0898 118.993 28.0898C117.124 28.0898 115.457 28.415 114.034 28.9841C112.571 29.5939 111.351 30.4475 110.376 31.5044C109.4 32.5613 108.668 33.7808 108.14 35.1629C107.652 36.545 107.408 38.0491 107.408 39.6344C107.408 41.3824 107.733 42.9677 108.343 44.4311C108.953 45.8539 109.807 47.0734 110.863 48.1303C111.92 49.1465 113.14 49.9595 114.522 50.5286C115.904 51.0571 117.367 51.3416 118.912 51.3416C120.335 51.3416 121.595 51.2197 122.652 50.9758C123.709 50.7725 124.684 50.488 125.497 50.1628C126.31 49.7969 127.083 49.3498 127.733 48.9026C128.384 48.4555 128.993 48.0083 129.603 47.5612L126.961 43.862C126.595 44.1466 126.229 44.4311 125.782 44.7563C125.294 45.0815 124.684 45.3661 124.034 45.6506C123.384 45.8945 122.652 46.0978 121.798 46.2604C120.985 46.3823 120.05 46.4636 119.034 46.423C118.506 46.3823 117.937 46.301 117.327 46.1791C116.717 46.0165 116.148 45.7726 115.619 45.4474C115.091 45.0815 114.603 44.6344 114.156 44.1466C113.709 43.6181 113.384 42.9677 113.18 42.1954L113.14 41.9921H130.091L130.132 40.6913C130.213 38.6588 129.969 36.9109 129.4 35.3662ZM112.977 37.5206L113.018 37.358C113.099 36.7076 113.302 36.3824 113.506 35.9353C113.546 35.854 113.587 35.7727 113.628 35.6914C113.993 35.0816 114.441 34.5938 114.969 34.1873C115.498 33.7808 116.107 33.4963 116.758 33.3337C117.449 33.1304 118.14 33.0085 118.831 33.0085C120.457 33.0491 121.798 33.4963 122.774 34.3906C123.262 34.7971 123.668 35.2036 123.993 35.6507C124.319 36.0979 124.522 36.6263 124.603 37.3174L124.644 37.5206H112.977Z" fill="#EA5F00" fill-rule="evenodd"></path><path clip-rule="evenodd" d="M149.44 30.3662L149.115 30.0817C148.424 29.4719 147.529 28.9841 146.513 28.6589C145.537 28.2931 144.359 28.0898 143.017 28.0898C141.513 28.0898 140.09 28.3744 138.79 28.9435C137.489 29.4719 136.351 30.2849 135.416 31.3012C134.44 32.3174 133.708 33.5776 133.139 35.041C132.611 36.4637 132.326 38.0897 132.326 39.8783C132.326 41.4637 132.611 42.9677 133.139 44.3498C133.708 45.7319 134.44 46.9108 135.416 47.9677C136.391 48.9839 137.489 49.7969 138.79 50.4473C140.09 51.0164 141.472 51.301 143.017 51.301C144.359 51.301 145.537 51.1384 146.513 50.7725C147.529 50.4067 148.424 49.8782 149.115 49.2278L149.44 48.9026V51.2603H154.684V28.7402H149.44V30.3662ZM148.952 42.5612C148.627 43.3336 148.18 44.0246 147.651 44.5531C147.123 45.0815 146.513 45.4474 145.822 45.7319C145.131 45.9758 144.399 46.0978 143.668 46.0978C142.001 46.0978 140.619 45.5287 139.481 44.4311C138.342 43.2523 137.814 41.7076 137.814 39.797C137.814 37.9271 138.383 36.3824 139.481 35.1629C140.619 33.9434 142.001 33.3337 143.668 33.3337C144.44 33.3337 145.172 33.4963 145.822 33.7808C146.554 34.0654 147.163 34.4719 147.651 35.041C148.18 35.5694 148.627 36.2605 148.952 37.1141C149.277 37.9271 149.44 38.8214 149.44 39.8783C149.44 40.8539 149.277 41.7482 148.952 42.5612Z" fill="#EA5F00" fill-rule="evenodd"></path><path clip-rule="evenodd" d="M198.586 30.3662L198.261 30.0817C197.57 29.4719 196.676 28.9841 195.659 28.6589C194.684 28.2931 193.505 28.0898 192.164 28.0898C190.66 28.0898 189.237 28.3744 187.936 28.9435C186.635 29.4719 185.497 30.2849 184.562 31.3012C183.586 32.3174 182.855 33.5776 182.286 35.041C181.757 36.4637 181.473 38.0897 181.473 39.8783C181.473 41.4637 181.757 42.9677 182.286 44.3498C182.855 45.7319 183.586 46.9108 184.562 47.9677C185.538 48.9839 186.635 49.7969 187.936 50.4473C189.237 51.0164 190.619 51.301 192.164 51.301C193.505 51.301 194.684 51.1384 195.659 50.7725C196.676 50.4067 197.57 49.8782 198.261 49.2278L198.586 48.9026V51.2603H203.83V28.8622H198.586V30.3662ZM198.098 42.5612C197.773 43.3336 197.326 44.0246 196.798 44.5531C196.269 45.0815 195.659 45.4474 194.968 45.7319C194.277 45.9758 193.546 46.0978 192.814 46.0978C191.147 46.0978 189.765 45.5287 188.627 44.4311C187.489 43.2523 186.96 41.7076 186.96 39.797C186.96 37.9271 187.529 36.3824 188.627 35.1629C189.765 33.9434 191.147 33.3337 192.814 33.3337C193.586 33.3337 194.277 33.4963 194.968 33.7808C195.7 34.0654 196.31 34.4719 196.798 35.041C197.326 35.5694 197.773 36.2605 198.098 37.1141C198.424 37.9271 198.586 38.8214 198.586 39.8783C198.586 40.8539 198.424 41.7482 198.098 42.5612Z" fill="#EA5F00" fill-rule="evenodd"></path><path clip-rule="evenodd" d="M242.122 38.5786L251.675 28.1316H244.764L236.878 36.7087V21.2617H231.594V51.3427H236.878V44.5135L238.626 42.5623L245.455 51.3427H252L242.122 38.5786Z" fill="#EA5F00" fill-rule="evenodd"></path><path clip-rule="evenodd" d="M226.878 33.3344C226.39 31.9523 225.456 30.7328 224.114 29.7166C222.773 28.7003 221.065 28.1719 219.033 28.1719C217.976 28.1719 216.878 28.3345 215.781 28.6597C214.846 28.9442 213.952 29.3914 213.139 30.0418V28.8629H207.813V51.3423H213.139V39.31C213.179 38.497 213.261 37.7246 213.342 36.9929C213.464 36.2206 213.667 35.5702 213.992 35.0011C214.317 34.432 214.805 33.9848 215.415 33.619C216.025 33.2531 216.797 33.0499 217.732 33.0092C218.911 32.9686 219.846 33.2938 220.578 33.9035C221.309 34.5539 221.797 35.3669 222.041 36.4238C222.163 36.9116 222.244 37.562 222.326 38.375C222.366 39.1474 222.407 40.2856 222.407 41.7896V51.3423H227.651V40.4888C227.651 39.0254 227.61 37.7246 227.529 36.6677C227.447 35.5295 227.244 34.432 226.878 33.3344Z" fill="#EA5F00" fill-rule="evenodd"></path></svg>